<svg id="Layer_1" data-name="Layer 1" xmlns="http://www.w3.org/2000/svg" xmlns:xlink="http://www.w3.org/1999/xlink" viewBox="0 0 770 395"><defs><style>.cls-1{fill:url(#linear-gradient);}.cls-2{fill:url(#linear-gradient-2);}.cls-3{fill:url(#linear-gradient-3);}.cls-4{fill:#fffb97;}.cls-5{fill:none;stroke-width:4.93px;}.cls-5,.cls-9{stroke:#4b4b4b;stroke-miterlimit:10;}.cls-6{fill:#4b4b4b;}.cls-7{fill:#abedd8;}.cls-8{fill:#fa4659;}.cls-9{fill:#fff;stroke-width:4.93px;}</style><linearGradient id="linear-gradient" x1="161.41" y1="370.51" x2="161.41" y2="151.26" gradientUnits="userSpaceOnUse"><stop offset="0.24" stop-color="#29b473" stop-opacity="0"/><stop offset="0.3" stop-color="#2cb67c" stop-opacity="0.09"/><stop offset="0.56" stop-color="#37bf9f" stop-opacity="0.48"/><stop offset="0.76" stop-color="#3fc6b8" stop-opacity="0.76"/><stop offset="0.92" stop-color="#44cac8" stop-opacity="0.93"/><stop offset="1" stop-color="#46ccce"/></linearGradient><linearGradient id="linear-gradient-2" x1="602.27" y1="376.89" x2="602.27" y2="172.43" xlink:href="#linear-gradient"/><linearGradient id="linear-gradient-3" x1="389.65" y1="355.73" x2="389.65" y2="140.18" xlink:href="#linear-gradient"/></defs><title>leniolabs-illustration-2</title><path class="cls-1" d="M297.17,275,181.4,159.53a28.4,28.4,0,0,0-40.06,0L25.66,275.21l136.6,95.3Z"/><path class="cls-2" d="M466.52,296.37,582.2,180.69a28.4,28.4,0,0,1,40.06,0L738,296.19l-134.91,80.7Z"/><path class="cls-3" d="M274.53,239.48,393.89,355.73,504.77,247.31l-99.13-98.87a28.4,28.4,0,0,0-40.06,0l-91.05,91"/><path class="cls-4" d="M694,252.75V124.55a11.23,11.23,0,0,0-11.2-11.2H665.6a11.23,11.23,0,0,0-11.2,11.2v88.62Z"/><path class="cls-5" d="M669.41,113.35H666a12,12,0,0,0-3.38.42"/><path class="cls-5" d="M694,252.75V126.14a15.16,15.16,0,0,0-.44-4.65,11.22,11.22,0,0,0-10.35-8.12c-1.56,0-3.13,0-4.69,0"/><path class="cls-5" d="M655.72,119.31A11.48,11.48,0,0,0,654.4,125v88.2L694,252.75"/><polygon class="cls-4" points="459.77 118.49 459.77 201.76 499.35 240.75 499.35 118.49 459.77 118.49"/><line class="cls-5" x1="499.35" y1="232.4" x2="499.35" y2="226.09"/><polyline class="cls-5" points="459.77 118.49 459.77 201.76 499.3 240.71"/><polyline class="cls-5" points="499.35 217.68 499.35 118.49 459.77 118.49"/><polyline class="cls-5" points="480.23 89.29 479.93 88.85 479.39 89.63"/><line class="cls-5" x1="499.35" y1="118.23" x2="481.32" y2="90.95"/><line class="cls-5" x1="478.27" y1="91.27" x2="459.77" y2="118.23"/><polygon class="cls-6" points="473.97 97.9 485.67 97.9 479.93 88.85 473.97 97.9"/><line class="cls-5" x1="483.22" y1="94.03" x2="482.85" y2="93.44"/><polyline class="cls-5" points="473.97 97.9 485.67 97.9 483.72 94.82"/><polyline class="cls-5" points="482.35 92.66 479.93 88.85 473.97 97.9"/><line class="cls-5" x1="479.93" y1="172.1" x2="479.93" y2="169.87"/><line class="cls-5" x1="479.93" y1="224" x2="479.93" y2="175.06"/><line class="cls-5" x1="479.93" y1="166.91" x2="479.93" y2="117.97"/><line class="cls-5" x1="659.89" y1="146.69" x2="660.12" y2="146.69"/><line class="cls-5" x1="654.4" y1="146.69" x2="659.57" y2="146.69"/><line class="cls-5" x1="660.43" y1="146.69" x2="665.6" y2="146.69"/><line class="cls-5" x1="659.89" y1="161.63" x2="660.12" y2="161.63"/><line class="cls-5" x1="654.4" y1="161.63" x2="659.57" y2="161.63"/><line class="cls-5" x1="660.43" y1="161.63" x2="665.6" y2="161.63"/><line class="cls-5" x1="659.89" y1="176.56" x2="660.12" y2="176.56"/><line class="cls-5" x1="654.4" y1="176.56" x2="659.57" y2="176.56"/><line class="cls-5" x1="660.43" y1="176.56" x2="665.6" y2="176.56"/><line class="cls-5" x1="659.89" y1="191.5" x2="660.12" y2="191.5"/><line class="cls-5" x1="654.4" y1="191.5" x2="659.57" y2="191.5"/><line class="cls-5" x1="660.43" y1="191.5" x2="665.6" y2="191.5"/><line class="cls-5" x1="659.89" y1="206.43" x2="660.12" y2="206.43"/><line class="cls-5" x1="654.4" y1="206.43" x2="659.57" y2="206.43"/><line class="cls-5" x1="660.43" y1="206.43" x2="665.6" y2="206.43"/><line class="cls-5" x1="457.08" y1="199.74" x2="449.92" y2="192.6"/><line class="cls-5" x1="504.77" y1="247.31" x2="466.62" y2="209.25"/><path class="cls-5" d="M440.38,183.09l-19.67-19.62-9.84-9.81-4.92-4.9c-.83-.81-1.7-1.58-2.57-2.34l-1.4-1a11.63,11.63,0,0,0-1.44-1,28.5,28.5,0,0,0-26.62-1.72c-.53.25-1.06.48-1.58.74l-1.49.88a27.91,27.91,0,0,0-2.86,2c-.9.73-1.74,1.53-2.59,2.31L363,151.07l-9.83,9.82-78.59,78.59"/><line class="cls-5" x1="82.16" y1="218.71" x2="90.64" y2="210.23"/><line class="cls-5" x1="25.66" y1="275.21" x2="70.86" y2="230.01"/><path class="cls-5" d="M101.94,198.93l23.31-23.31L136.9,164l2.92-2.92,1.46-1.45,1.52-1.39a26.84,26.84,0,0,1,6.91-4.42,27.11,27.11,0,0,1,7.89-2.25,28.57,28.57,0,0,1,16.05,2.53,26.77,26.77,0,0,1,6.8,4.59c1,.9,2,1.91,3,2.87l2.92,2.91,5.83,5.82,11.67,11.64L297.17,275"/><line class="cls-5" x1="681.46" y1="239.75" x2="672.97" y2="231.28"/><line class="cls-5" x1="738.03" y1="296.19" x2="692.77" y2="251.04"/><path class="cls-5" d="M661.66,220l-23.34-23.28-11.67-11.64-2.91-2.91-1.46-1.46-1.53-1.38a27.27,27.27,0,0,0-6.92-4.4,26.9,26.9,0,0,0-7.9-2.22,28.42,28.42,0,0,0-16,2.56,27,27,0,0,0-6.79,4.61c-1,.9-2,1.91-3,2.87l-2.92,2.92-5.82,5.82-11.66,11.66-93.23,93.23"/><circle class="cls-4" cx="273.15" cy="109.32" r="24.64"/><polyline class="cls-5" points="248.59 110.94 248.5 109.32 248.59 107.69"/><path class="cls-5" d="M297.79,109.32a24.79,24.79,0,0,1-6.22,16.32,24.4,24.4,0,0,1-15.46,8.12,24.82,24.82,0,0,1-17-4.17,24.53,24.53,0,0,1-9.91-14.38"/><path class="cls-5" d="M249.24,103.42A24.56,24.56,0,0,1,259.15,89a24.87,24.87,0,0,1,17-4.17A24.45,24.45,0,0,1,291.57,93a24.81,24.81,0,0,1,6.22,16.33"/><path class="cls-7" d="M555.75,25.44a35.87,35.87,0,0,0-34.43,46l-7.87,18.5H534.1a35.87,35.87,0,1,0,21.65-64.46Z"/><path class="cls-5" d="M544.45,95.36a34.72,34.72,0,0,0,4.94,1.26"/><path class="cls-5" d="M555.75,25.44a40.26,40.26,0,0,0-10.68,1.61,38.6,38.6,0,0,0-9.69,4.75,36.07,36.07,0,0,0-13.15,16.8c-.28.85-.67,1.68-.88,2.56l-.67,2.62c-.2.88-.29,1.78-.44,2.67-.06.45-.15.89-.19,1.34L520,59.14a33.82,33.82,0,0,0,.94,10.75c.1.44.22.88.34,1.31.13.22-.06.42-.12.63l-.27.63L519.81,75l-2.12,5-4.24,10h20.4c.13,0,.27,0,.37.09.43.31.85.64,1.3.93.88.6,1.78,1.17,2.72,1.69"/><path class="cls-5" d="M556.16,97.17A35.89,35.89,0,0,0,589,74.8a35.86,35.86,0,0,0-33.23-49.36"/><path class="cls-8" d="M572.74,48.44a10.38,10.38,0,0,0-14.67,0l-2.34,2.34-2.33-2.34a10.37,10.37,0,0,0-14.67,14.67l17,17,17-17A10.38,10.38,0,0,0,572.74,48.44Z"/><line class="cls-5" x1="540.99" y1="65.37" x2="542.77" y2="67.15"/><path class="cls-5" d="M572.74,48.44a10.41,10.41,0,0,0-9-2.9,10.18,10.18,0,0,0-4.47,1.87,42,42,0,0,0-3.56,3.37c-1.07-1-2.06-2.16-3.2-3.11a10.41,10.41,0,0,0-12.48-.34A10.36,10.36,0,0,0,538.62,63"/><path class="cls-5" d="M545.14,69.52l10.59,10.6L570,65.85l1.78-1.78a23,23,0,0,0,1.73-1.83,10.61,10.61,0,0,0,2.09-4.54,10.37,10.37,0,0,0-2.86-9.26"/><path class="cls-9" d="M402,194.12v-2.34a15.67,15.67,0,0,0,29.87-6.62v-10.6l-26.19-26.12a28.4,28.4,0,0,0-40.06,0l-24.85,24.84v11.88a15.67,15.67,0,0,0,29.87,6.62v2.34a15.68,15.68,0,1,0,31.36,0Z"/><path class="cls-9" d="M177.73,205.21v-2.34a15.67,15.67,0,0,0,29.87-6.62v-10.6l-26.2-26.12a28.4,28.4,0,0,0-40.06,0L116.5,184.37v11.88a15.67,15.67,0,0,0,29.87,6.62v2.34a15.68,15.68,0,1,0,31.36,0Z"/><path class="cls-9" d="M618.59,226.37V224a15.66,15.66,0,0,0,29.86-6.62v-10.6l-26.19-26.12a28.4,28.4,0,0,0-40.06,0l-24.84,24.84v11.88A15.66,15.66,0,0,0,587.22,224v2.34a15.69,15.69,0,1,0,31.37,0Z"/></svg>